<svg xmlns="http://www.w3.org/2000/svg" viewBox="0 0 64.75 102.74"><defs><style>.cls-1{fill:#fff;}</style></defs><g id="Capa_2" data-name="Capa 2"><g id="Layer_1" data-name="Layer 1"><path class="cls-1" d="M63.83,38.17a29.51,29.51,0,0,0,.92-7.3C64.75,13.85,50.23,0,32.38,0S0,13.85,0,30.87a29.51,29.51,0,0,0,.92,7.3,44.24,44.24,0,0,0,3.53,12c3.18,6.37,16.57,27.41,22.72,37C18.86,88.18,15,91.59,15,94.8c0,3.82,5.44,7.94,17.38,7.94s17.37-4.12,17.37-7.94c0-3.21-3.86-6.62-12.17-7.63,6.15-9.58,19.54-30.62,22.72-37A44.24,44.24,0,0,0,63.83,38.17ZM44.74,94.8C44.4,95.71,40.22,98,32.38,98S20.25,95.65,20,94.83c.22-.79,3.63-2.73,10.08-3.12l.17.25a2.56,2.56,0,0,0,4.25,0l.17-.25C41,92.09,44.44,94,44.74,94.8ZM59,37.13c0,.06,0,.12,0,.18a41.12,41.12,0,0,1-3.12,10.82c-3.22,6.44-17.87,29.39-23.41,38-5.55-8.63-20.2-31.58-23.42-38A41.12,41.12,0,0,1,5.84,37.31c0-.06,0-.12,0-.18A25.05,25.05,0,0,1,5,30.87C5,16.48,17.28,4.77,32.38,4.77s27.37,11.71,27.37,26.1A25.05,25.05,0,0,1,59,37.13Z"/><path class="cls-1" d="M32.38,13.51C22.79,13.51,15,21,15,30.08s7.79,16.57,17.38,16.57,17.37-7.43,17.37-16.57S42,13.51,32.38,13.51Zm0,28.37C25.55,41.88,20,36.59,20,30.08s5.55-11.8,12.38-11.8,12.37,5.3,12.37,11.8S39.2,41.88,32.38,41.88Z"/></g></g></svg>