<svg xmlns="http://www.w3.org/2000/svg" viewBox="0 0 99.72 100.62"><defs><style>.cls-1{fill:#fff;}</style></defs><g id="Capa_2" data-name="Capa 2"><g id="Layer_1" data-name="Layer 1"><path class="cls-1" d="M5.93,19.25a13.29,13.29,0,0,0-1.16,1.44C1.51,23.58-1.07,29.93.45,37.75a78.07,78.07,0,0,0,69.39,62.77c.74.07,1.48.1,2.21.1a20.43,20.43,0,0,0,10.64-2.79,15.87,15.87,0,0,0,3.79-3.06l3-3.27a15.58,15.58,0,0,0-1.1-22l-5-4.5a15.54,15.54,0,0,0-22,1.1l-2.95,3.26a15.53,15.53,0,0,0-2.75,4.27A55,55,0,0,1,28.3,48.6a15.42,15.42,0,0,0,5.68-4l3-3.26a15.57,15.57,0,0,0-1.1-22l-5-4.5a15.57,15.57,0,0,0-22,1.1Zm5.91-.59a11.56,11.56,0,0,1,16.33-.81l5,4.5A11.57,11.57,0,0,1,34,38.68L31,41.94h0a11.58,11.58,0,0,1-5.24,3.31l-.89.27a2,2,0,0,0-1.22,2.81l.42.84A59.08,59.08,0,0,0,55.34,77.84l.77.31a2,2,0,0,0,1.58-.05,2,2,0,0,0,1.05-1.18l.26-.78a11.55,11.55,0,0,1,2.39-4.07l3-3.26A11.54,11.54,0,0,1,80.66,68l5,4.5a11.57,11.57,0,0,1,.82,16.33l-2.95,3.27a11.85,11.85,0,0,1-2.87,2.3A17.11,17.11,0,0,1,70.2,96.54,74.07,74.07,0,0,1,4.37,37c-1.3-6.73,1.15-11.68,3.12-13.36l.18-.18.14-.15c.05-.07.11-.13.16-.21a11.42,11.42,0,0,1,.92-1.16Z"/><path class="cls-1" d="M99.72,47.51A47.56,47.56,0,0,0,52.22,0a4.16,4.16,0,1,0,0,8.32A39.23,39.23,0,0,1,91.4,47.51a4.16,4.16,0,1,0,8.32,0Zm-4.16,2.16a2.16,2.16,0,0,1-2.16-2.16A41.23,41.23,0,0,0,52.22,6.32a2.16,2.16,0,1,1,0-4.32,45.55,45.55,0,0,1,45.5,45.51A2.16,2.16,0,0,1,95.56,49.67Z"/><path class="cls-1" d="M51.71,15.47a4.16,4.16,0,0,0,0,8.32A24.26,24.26,0,0,1,75.93,48a4.16,4.16,0,1,0,8.32,0A32.58,32.58,0,0,0,51.71,15.47ZM80.09,50.18A2.16,2.16,0,0,1,77.93,48,26.26,26.26,0,0,0,51.71,21.79a2.16,2.16,0,0,1,0-4.32A30.58,30.58,0,0,1,82.25,48,2.16,2.16,0,0,1,80.09,50.18Z"/></g></g></svg>